<?xml version="1.0" encoding="UTF-8" standalone="no"?>
<!-- Created with Inkscape (http://www.inkscape.org/) -->

<svg
   xmlns:dc="http://purl.org/dc/elements/1.1/"
   xmlns:cc="http://creativecommons.org/ns#"
   xmlns:rdf="http://www.w3.org/1999/02/22-rdf-syntax-ns#"
   xmlns:svg="http://www.w3.org/2000/svg"
   xmlns="http://www.w3.org/2000/svg"
   xmlns:sodipodi="http://sodipodi.sourceforge.net/DTD/sodipodi-0.dtd"
   xmlns:inkscape="http://www.inkscape.org/namespaces/inkscape"
   width="15"
   height="10"
   viewBox="0 0 3.9687498 2.6458334"
   version="1.1"
   id="svg8"
   inkscape:version="0.92.1 r15371"
   sodipodi:docname="T.S.svg">
  <defs
     id="defs2" />
  <sodipodi:namedview
     id="base"
     pagecolor="#ffffff"
     bordercolor="#666666"
     borderopacity="1.0"
     inkscape:pageopacity="0.0"
     inkscape:pageshadow="2"
     inkscape:zoom="15.839192"
     inkscape:cx="11.045113"
     inkscape:cy="-3.4325636"
     inkscape:document-units="px"
     inkscape:current-layer="layer1"
     showgrid="false"
     showguides="false"
     fit-margin-top="0"
     fit-margin-left="0"
     fit-margin-right="0"
     fit-margin-bottom="0"
     units="px"
     inkscape:window-width="1366"
     inkscape:window-height="705"
     inkscape:window-x="-8"
     inkscape:window-y="-8"
     inkscape:window-maximized="1" />
  <metadata
     id="metadata5">
    <rdf:RDF>
      <cc:Work
         rdf:about="">
        <dc:format>image/svg+xml</dc:format>
        <dc:type
           rdf:resource="http://purl.org/dc/dcmitype/StillImage" />
        <dc:title></dc:title>
      </cc:Work>
    </rdf:RDF>
  </metadata>
  <g
     inkscape:label="Layer 1"
     inkscape:groupmode="layer"
     id="layer1"
     transform="translate(-27.471978,-201.48887)">
    <path
       style="fill:#ff6400;fill-opacity:1;fill-rule:nonzero;stroke:#641900;stroke-width:0.06614584;stroke-linecap:square;stroke-linejoin:round;stroke-miterlimit:4;stroke-dasharray:none;stroke-opacity:1"
       d="m 28.538007,201.59354 v 0.10848 h -0.101856 v 0.65389 l 0.05351,0.0534 v 0.10508 h 0.270455 v 0.2454 a 0.67353877,0.67198666 0 0 0 -0.05236,-0.002 0.67353877,0.67198666 0 0 0 -0.673538,0.67199 0.67353877,0.67198666 0 0 0 0.673538,0.67198 0.67353877,0.67198666 0 0 0 0.657775,-0.52938 h 0.929771 v 0.17674 h 0.01814 v 0.11444 h 0.01272 a 0.20431621,0.20384538 0 0 0 -0.0031,0.0344 0.20431621,0.20384538 0 0 0 0.204316,0.20384 0.20431621,0.20384538 0 0 0 0.204316,-0.20384 0.20431621,0.20384538 0 0 0 -0.003,-0.0344 h 0.0095 v -0.0622 h 0.02615 v -0.25704 h 0.05434 v -0.78327 h -1.266145 v -0.2711 h 0.21942 v -0.0684 h 0.09058 v -0.71495 h -0.08455 v -0.11246 z m 2.00089,1.37168 h 0.04629 v 0.42575 h -0.273758 v -0.13653 l 0.158037,0.003 0.06945,-0.0692 z"
       id="path4494"
       inkscape:connector-curvature="0" />
  </g>
</svg>
