<?xml version="1.0" encoding="UTF-8" standalone="no"?>
<!-- Created with Inkscape (http://www.inkscape.org/) -->

<svg
   xmlns:dc="http://purl.org/dc/elements/1.1/"
   xmlns:cc="http://creativecommons.org/ns#"
   xmlns:rdf="http://www.w3.org/1999/02/22-rdf-syntax-ns#"
   xmlns:svg="http://www.w3.org/2000/svg"
   xmlns="http://www.w3.org/2000/svg"
   xmlns:sodipodi="http://sodipodi.sourceforge.net/DTD/sodipodi-0.dtd"
   xmlns:inkscape="http://www.inkscape.org/namespaces/inkscape"
   width="30"
   height="10"
   viewBox="0 0 7.9374998 2.6458334"
   version="1.1"
   id="svg8"
   inkscape:version="0.92.1 r15371"
   sodipodi:docname="T.Tr IKAR-1718-H.svg">
  <defs
     id="defs2" />
  <sodipodi:namedview
     id="base"
     pagecolor="#ffffff"
     bordercolor="#666666"
     borderopacity="1.0"
     inkscape:pageopacity="0.0"
     inkscape:pageshadow="2"
     inkscape:zoom="11.313709"
     inkscape:cx="17.527573"
     inkscape:cy="1.7285344"
     inkscape:document-units="px"
     inkscape:current-layer="layer1"
     showgrid="false"
     showguides="true"
     fit-margin-top="0"
     fit-margin-left="0"
     fit-margin-right="0"
     fit-margin-bottom="0"
     units="px"
     inkscape:window-width="1366"
     inkscape:window-height="705"
     inkscape:window-x="-8"
     inkscape:window-y="-8"
     inkscape:window-maximized="1"
     inkscape:measure-start="0,0"
     inkscape:measure-end="0,0"
     inkscape:lockguides="false" />
  <metadata
     id="metadata5">
    <rdf:RDF>
      <cc:Work
         rdf:about="">
        <dc:format>image/svg+xml</dc:format>
        <dc:type
           rdf:resource="http://purl.org/dc/dcmitype/StillImage" />
        <dc:title></dc:title>
      </cc:Work>
    </rdf:RDF>
  </metadata>
  <g
     inkscape:label="Layer 1"
     inkscape:groupmode="layer"
     id="layer1"
     transform="translate(-27.471978,-201.48887)">
    <path
       style="fill:#0064ff;fill-opacity:1;fill-rule:nonzero;stroke:#0000c8;stroke-width:0.06614583;stroke-linecap:square;stroke-linejoin:round;stroke-miterlimit:4;stroke-dasharray:none;stroke-opacity:1"
       d="m 30.653156,201.51852 v 0.60933 l -0.05748,-0.0126 -0.163149,-0.32278 -0.160191,0.0805 0.02198,0.0439 0.174562,0.34554 0.184282,0.04 v 0.64515 H 29.606638 V 202.511 h 0.05918 v -0.0826 h -0.434925 v -0.23261 -0.15802 h -1.156419 v 0.39063 h -0.384205 v 0.0826 h 0.05875 v 0.43951 h -0.05875 v 0.0906 h 0.267539 c -0.166506,0.10608 -0.267058,0.28794 -0.267549,0.48333 1.07e-4,0.31624 0.258196,0.57341 0.579054,0.57689 v 4.2e-4 h 0.0068 3.141263 0.0148 v -8.2e-4 c 0.317295,-0.008 0.570299,-0.26365 0.5706,-0.57646 0,-0.3188 -0.261926,-0.5773 -0.585394,-0.5773 -0.0021,1e-4 -0.0047,2.9e-4 -0.0068,4.1e-4 h -0.0038 v -0.16855 l 2.029649,0.43951 v 0.10914 h 0.227394 v -0.0603 l 0.594693,0.12894 0.03635,-0.16645 -0.320804,-0.0695 v -0.078 h 1.215629 v -0.16687 h -0.923528 l 0.0013,-0.005 -0.293331,-0.0636 v -0.07 h -0.310247 v -0.0919 h -0.227395 v 0.0455 l -1.821695,-0.39442 a 0.31881182,0.31784878 0 0 0 -0.125955,-0.25115 v -0.22924 h -0.08203 v -0.33711 z m -1.422275,0.67718 0.653021,-0.17109 0.41041,-0.10788 z m 2.337772,0.30466 1.867766,0.40453 v 0.13906 l -1.985267,-0.42982 a 0.31881182,0.31784878 0 0 0 0.117501,-0.11377 z m -3.715244,0.0105 h 0.174139 4.22e-4 1.492438 v 0.43655 h -0.70036 v -0.0434 h 0.455636 v -0.3447 h -0.383359 v 0.27138 h -0.0241 v -0.0455 h -0.03931 v 0.0585 h -0.05284 v -0.0898 h -0.239652 v 0.0898 h -0.04311 v -0.27509 h -0.439145 v 0.33544 h 0.02451 0.296713 v 0.0434 h -0.277693 c -0.0055,-1.8e-4 -0.01103,-3.9e-4 -0.01648,-4.2e-4 -0.0024,9e-5 -0.0045,2.9e-4 -0.0068,4.2e-4 h -0.01987 v 8.1e-4 c -0.0063,5.2e-4 -0.0127,8.2e-4 -0.01902,0.002 h -0.182169 v -0.39357 z m 0.571868,0.39316 h 0.344474 v 0.0434 h -0.344474 z m 5.238537,0.0502 0.115389,0.0249 v 0.0999 h -0.115389 z m -4.057182,0.0206 h 1.046524 v 0.0274 h -1.046524 z m -0.758265,0.67043 h 1.997103 c 0.0424,0.19453 0.183382,0.35369 0.373215,0.42139 h -2.744801 c 0.190276,-0.0674 0.331855,-0.2266 0.374483,-0.42139 z"
       id="path4494"
       inkscape:connector-curvature="0" />
  </g>
</svg>
